<svg width="45" height="60" viewBox="0 0 45 60" fill="none" xmlns="http://www.w3.org/2000/svg">
<path fill-rule="evenodd" clip-rule="evenodd" d="M36.2496 3.81298C41.1419 7.33211 45 13.7797 45 25.1295C45 32.5311 41.5612 39.9677 37.3397 46.0639C33.1105 52.1714 27.9496 57.1441 24.2054 59.6172C23.4512 60.1153 22.4962 60.1267 21.7316 59.655C17.8917 57.2859 12.4983 52.5785 8.05479 46.5596C3.61636 40.5475 0 33.0552 0 25.1295C0 13.5315 4.10646 7.1431 9.24883 3.7263C14.2723 0.388532 20.0109 0.0824078 22.9157 0.00795195C25.9283 -0.0692664 31.4486 0.359607 36.2496 3.81298ZM34.533 6.25092C30.4872 3.34079 25.7242 2.92922 22.9908 2.99928C20.1495 3.07211 15.1516 3.38521 10.8751 6.2267C6.71751 8.98917 2.96053 14.34 2.96053 25.1295C2.96053 32.1583 6.18829 39.0278 10.4276 44.7701C14.5235 50.3183 19.4464 54.6537 22.9266 56.8824C26.2842 54.5717 30.9955 50.0073 34.9143 44.3481C38.9753 38.4835 42.0395 31.6533 42.0395 25.1295C42.0395 14.5343 38.4873 9.09531 34.533 6.25092Z" fill="black"/>
<path d="M31.3816 17.8228C24.0413 16.8327 22.6728 16.8327 15.3947 17.6428C22.6728 18.993 24.0413 18.9488 31.3816 17.8228Z" fill="#969393"/>
<path d="M17.7586 34.7106H28.9556L24.0413 32.8204V23.0434L31.3816 17.8228C24.0413 18.9488 22.6728 18.993 15.3947 17.6428L22.6728 23.0434V32.8204L17.7586 34.7106Z" fill="#100E0E"/>
<path fill-rule="evenodd" clip-rule="evenodd" d="M23.3656 16.983C25.5401 17.0055 27.7214 17.2537 31.3914 17.7487L31.5789 17.774L24.1153 23.0822V32.7688L28.9819 34.6407L28.9555 34.7854H17.7585L17.7322 34.6407L22.5988 32.7688V23.0813L15.1978 17.5895L15.3866 17.5685C19.0253 17.1635 21.1911 16.9604 23.3656 16.983ZM15.6978 17.7749L22.7468 23.0055V32.872L18.1611 34.6358H28.553L23.9673 32.872V23.0045L31.0821 17.9443C27.5987 18.4762 25.4783 18.7527 23.3642 18.7362C21.2515 18.7196 19.1475 18.4104 15.6978 17.7749ZM30.8551 17.8276C27.4924 18.3391 25.4249 18.6027 23.3654 18.5866C21.3038 18.5704 19.248 18.274 15.9072 17.6613C19.2453 17.2936 21.3016 17.1112 23.3641 17.1326C25.4249 17.1539 27.4936 17.3788 30.8551 17.8276Z" fill="black"/>
</svg>
