<svg width="45" height="60" viewBox="0 0 45 60" fill="none" xmlns="http://www.w3.org/2000/svg">
<path fill-rule="evenodd" clip-rule="evenodd" d="M36.2496 3.81298C41.1419 7.33211 45 13.7797 45 25.1295C45 32.5311 41.5612 39.9677 37.3397 46.0639C33.1105 52.1714 27.9496 57.1441 24.2054 59.6172C23.4512 60.1153 22.4962 60.1267 21.7316 59.655C17.8917 57.2859 12.4983 52.5785 8.05479 46.5596C3.61636 40.5475 0 33.0552 0 25.1295C0 13.5315 4.10646 7.1431 9.24883 3.7263C14.2723 0.388532 20.0109 0.0824078 22.9157 0.00795195C25.9283 -0.0692664 31.4486 0.359607 36.2496 3.81298ZM34.533 6.25092C30.4872 3.34079 25.7242 2.92922 22.9908 2.99928C20.1495 3.07211 15.1516 3.38521 10.8751 6.2267C6.71751 8.98917 2.96053 14.34 2.96053 25.1295C2.96053 32.1583 6.18829 39.0278 10.4276 44.7701C14.5235 50.3183 19.4464 54.6537 22.9266 56.8824C26.2842 54.5717 30.9955 50.0073 34.9143 44.3481C38.9753 38.4835 42.0395 31.6533 42.0395 25.1295C42.0395 14.5343 38.4873 9.09531 34.533 6.25092Z" fill="black"/>
<path fill-rule="evenodd" clip-rule="evenodd" d="M12.7303 16.7766C12.2397 16.7766 11.8421 17.1786 11.8421 17.6743V29.0252C11.8421 29.521 12.2397 29.9229 12.7303 29.9229H31.9737C32.4642 29.9229 32.8618 29.521 32.8618 29.0252V17.6743C32.8618 17.1786 32.4642 16.7766 31.9737 16.7766H28.6095C28.3905 16.7766 28.1791 16.6948 28.0161 16.5469L26.6678 15.3231C26.5048 15.1751 26.2934 15.0933 26.0744 15.0933H23.8404C23.6213 15.0933 23.4099 15.1751 23.247 15.3231L21.8986 16.5469C21.7356 16.6948 21.5242 16.7766 21.3052 16.7766H12.7303ZM22.8112 24.5808C21.8925 23.6686 21.8503 22.1843 22.713 21.2177C23.64 20.179 25.2433 20.1414 26.2141 21.1385C27.1748 22.1251 27.1247 23.7247 26.1069 24.6511C25.1627 25.5105 23.7177 25.4808 22.8112 24.5808Z" fill="#DCD8D8"/>
<path fill-rule="evenodd" clip-rule="evenodd" d="M22.9502 14.9891C23.1947 14.7672 23.5118 14.6444 23.8404 14.6444H26.0744C26.403 14.6444 26.72 14.7672 26.9645 14.9891L28.3128 16.2129C28.3943 16.2869 28.5 16.3278 28.6095 16.3278H31.9737C32.7095 16.3278 33.3059 16.9307 33.3059 17.6743V29.0252C33.3059 29.7689 32.7095 30.3718 31.9737 30.3718H12.7303C11.9945 30.3718 11.398 29.7689 11.398 29.0252V17.6743C11.398 16.9307 11.9945 16.3278 12.7303 16.3278H21.3052C21.4147 16.3278 21.5204 16.2869 21.6019 16.2129L22.9502 14.9891ZM23.8404 15.5421C23.7308 15.5421 23.6252 15.583 23.5437 15.657L22.1953 16.8808C21.9508 17.1027 21.6338 17.2255 21.3052 17.2255H12.7303C12.485 17.2255 12.2862 17.4264 12.2862 17.6743V29.0252C12.2862 29.2731 12.485 29.4741 12.7303 29.4741H31.9737C32.2189 29.4741 32.4178 29.2731 32.4178 29.0252V17.6743C32.4178 17.4264 32.2189 17.2255 31.9737 17.2255H28.6095C28.2809 17.2255 27.9639 17.1027 27.7194 16.8808L26.3711 15.657C26.2896 15.583 26.1839 15.5421 26.0744 15.5421H23.8404ZM25.8976 21.4533C25.1067 20.641 23.7991 20.6709 23.0427 21.5184C22.3389 22.3069 22.3739 23.5174 23.1225 24.2607C23.8609 24.9939 25.0394 25.0187 25.8097 24.3176C26.6402 23.5617 26.6803 22.2571 25.8976 21.4533ZM22.3832 20.9171C23.481 19.6872 25.38 19.6418 26.5306 20.8236C27.6694 21.9931 27.6093 23.8877 26.4041 24.9846C25.286 26.0023 23.5744 25.9678 22.5 24.901C21.4111 23.8197 21.3616 22.0617 22.3832 20.9171Z" fill="black"/>
<path d="M24.3446 21.8437L24.1852 22.6195L23.3882 22.9298L24.182 23.1626L24.5009 23.9383L24.6603 23.1626L25.4605 22.7747L24.6635 22.6195L24.3446 21.8437Z" fill="black"/>
</svg>
