<svg width="20" height="20" viewBox="0 0 20 20" fill="none" xmlns="http://www.w3.org/2000/svg">
<path fill-rule="evenodd" clip-rule="evenodd" d="M4.36386 4.36386C5.85865 2.86906 7.88603 2.0293 9.99999 2.0293C12.1139 2.0293 14.1413 2.86906 15.6361 4.36386C17.1309 5.85865 17.9707 7.88603 17.9707 9.99999C17.9707 12.1139 17.1309 14.1413 15.6361 15.6361C14.1413 17.1309 12.1139 17.9707 9.99999 17.9707C7.88603 17.9707 5.85865 17.1309 4.36386 15.6361C2.86906 14.1413 2.0293 12.1139 2.0293 9.99999C2.0293 7.88603 2.86906 5.85865 4.36386 4.36386ZM9.99999 3.5293C8.28385 3.5293 6.63801 4.21103 5.42452 5.42452C4.21103 6.63801 3.5293 8.28385 3.5293 9.99999C3.5293 11.7161 4.21103 13.362 5.42452 14.5755C6.63801 15.7889 8.28385 16.4707 9.99999 16.4707C11.7161 16.4707 13.362 15.7889 14.5755 14.5755C15.7889 13.362 16.4707 11.7161 16.4707 9.99999C16.4707 8.28385 15.7889 6.63801 14.5755 5.42452C13.362 4.21103 11.7161 3.5293 9.99999 3.5293ZM9.99999 9.25002C10.4142 9.25002 10.75 9.58581 10.75 10V13.6104C10.75 14.0246 10.4142 14.3604 9.99999 14.3604C9.58578 14.3604 9.24999 14.0246 9.24999 13.6104V10C9.24999 9.58581 9.58578 9.25002 9.99999 9.25002ZM9.53969 6.09316C9.70575 5.9822 9.90098 5.92298 10.1007 5.92298C10.3685 5.92298 10.6253 6.02937 10.8147 6.21874C11.0041 6.40811 11.1105 6.66495 11.1105 6.93275C11.1105 7.13246 11.0512 7.32769 10.9403 7.49375C10.8293 7.65981 10.6716 7.78923 10.4871 7.86566C10.3026 7.94208 10.0996 7.96208 9.9037 7.92312C9.70783 7.88416 9.5279 7.78799 9.38668 7.64677C9.24546 7.50554 9.14929 7.32562 9.11033 7.12975C9.07136 6.93387 9.09136 6.73084 9.16779 6.54633C9.24421 6.36182 9.37363 6.20412 9.53969 6.09316Z" fill="#333333"/>
</svg>
