<svg width="20" height="20" viewBox="0 0 20 20" fill="none" xmlns="http://www.w3.org/2000/svg">
<path fill-rule="evenodd" clip-rule="evenodd" d="M13.6445 2.50303C13.4012 2.41562 13.1415 2.38344 12.8843 2.4088C12.627 2.43416 12.3786 2.51643 12.1571 2.64964C11.9356 2.78286 11.7464 2.9637 11.6034 3.17904L11.6022 3.18085L9.26574 6.72667L4.36592 7.85815C4.14061 7.90778 3.93277 8.01714 3.76424 8.17478C3.59453 8.33352 3.47102 8.53528 3.40683 8.75862C3.34265 8.98195 3.34019 9.2185 3.39972 9.44312C3.45887 9.66633 3.57704 9.86946 3.74177 10.0312L6.8316 13.1215L2.57613 17.377C2.34181 17.6113 2.34181 17.9912 2.57613 18.2255C2.81044 18.4599 3.19034 18.4599 3.42465 18.2255L7.68006 13.9701L10.7715 17.0621L10.7718 17.0624C10.9349 17.2252 11.1385 17.3415 11.3617 17.399C11.5848 17.4566 11.8193 17.4535 12.0408 17.3899C12.2623 17.3263 12.4627 17.2046 12.6213 17.0374C12.7799 16.8702 12.8909 16.6636 12.9427 16.4391L12.9427 16.439L14.0725 11.5418L17.6486 9.27366L17.649 9.27341C17.8693 9.13341 18.0554 8.9457 18.1935 8.72414C18.3316 8.50258 18.4181 8.25284 18.4467 7.99335C18.4753 7.73386 18.4453 7.47125 18.3588 7.22494C18.2723 6.97862 18.1316 6.75488 17.947 6.57024L17.9469 6.57014L14.2909 2.91413L14.2903 2.91352C14.1081 2.73054 13.8875 2.59033 13.6445 2.50303ZM8.12036 12.7133L11.6198 16.2133L11.6199 16.2134C11.6314 16.2249 11.6458 16.2331 11.6615 16.2371C11.6773 16.2412 11.6939 16.241 11.7096 16.2365C11.7253 16.232 11.7395 16.2233 11.7507 16.2115C11.7619 16.1997 11.7698 16.1851 11.7734 16.1692L11.7735 16.1692L12.9586 11.0321C12.994 10.8784 13.0886 10.7448 13.2219 10.6603L17.0055 8.26055L17.0057 8.26042C17.0742 8.21683 17.1321 8.15841 17.1751 8.08947C17.2181 8.02046 17.245 7.94267 17.2539 7.86184C17.2628 7.78102 17.2535 7.69922 17.2265 7.6225C17.1996 7.54582 17.1558 7.47616 17.0984 7.41867L17.0983 7.41858L13.4412 3.76153L13.4401 3.76041C13.3833 3.70332 13.3146 3.65958 13.2388 3.63236C13.163 3.60514 13.0821 3.59511 13.002 3.60301C12.9219 3.61091 12.8445 3.63653 12.7755 3.67803C12.7067 3.71939 12.648 3.77548 12.6035 3.84226L12.603 3.84292L10.1357 7.5874C10.0509 7.71608 9.91981 7.80721 9.76965 7.84188L4.63251 9.02817L4.62441 9.03004L4.6244 9.02998C4.60926 9.03326 4.59529 9.04058 4.58397 9.05116C4.57266 9.06174 4.56443 9.07519 4.56015 9.09008C4.55587 9.10497 4.5557 9.12074 4.55967 9.13571C4.56364 9.15069 4.57159 9.16431 4.58268 9.17512L4.58813 9.18043L4.58809 9.18046L8.08843 12.6814C8.09391 12.6865 8.09932 12.6917 8.10465 12.697C8.11001 12.7024 8.11525 12.7078 8.12036 12.7133Z" fill="#101010"/>
</svg>
