<svg width="21" height="15" viewBox="0 0 21 15" fill="none" xmlns="http://www.w3.org/2000/svg">
<path d="M8.94321 4C2.94321 4 0.943215 2.5 0.943215 2.5C0.776548 3.5 0.943215 6 0.943215 7.5C0.943215 9.56155 2.94321 13.5 4.94321 14C6.17036 14.3068 8.20154 14.5 8.94321 14.5C9.8682 14.5 12.4373 14.253 12.9432 14C13.734 13.6046 15.3374 11.7713 15.7645 9.5C15.8238 9.18474 15.9126 8.3514 15.9432 8C15.9709 7.68151 15.9432 7.84818 15.9432 7.5V3.5V2.5C15.9432 2.5 14.9432 4 8.94321 4Z" fill="black"/>
<path d="M8.94321 0.5C5.92324 0.5 2.42657 1.16667 0.943215 2.5C0.943215 2.5 2.94321 4 8.94321 4C14.9432 4 15.9432 2.5 15.9432 2.5C14.9432 1.16667 11.9632 0.5 8.94321 0.5Z" fill="black"/>
<path d="M20.4432 4.5C20.4432 2.9 17.4432 2.5 15.9432 2.5V3.5C16.8559 3.5 19.4432 3.5 19.4432 4.5C19.4432 5.5 17.2907 7.16667 15.9432 8C15.9126 8.3514 15.8238 9.18474 15.7645 9.5C17.3241 8.5 20.4432 6.1 20.4432 4.5Z" fill="black"/>
</svg>
