<svg width="20" height="20" viewBox="0 0 20 20" fill="none" xmlns="http://www.w3.org/2000/svg">
<path fill-rule="evenodd" clip-rule="evenodd" d="M14.1176 5.83896C12.8643 5.05623 11.4319 4.50541 9.97041 4.52905C8.50891 4.50541 7.07654 5.05622 5.82346 5.83899C4.56124 6.62746 3.42984 7.68246 2.55885 8.74473L2.55885 8.74472L2.55686 8.74716C2.36883 8.97847 2.03906 9.43289 2.03906 9.99883C2.03906 10.5648 2.36883 11.0192 2.55686 11.2505L2.55686 11.2505L2.55871 11.2528C3.41048 12.2922 4.53011 13.3477 5.7911 14.1424C7.04329 14.9315 8.48556 15.4947 9.97041 15.4707C11.4553 15.4947 12.8977 14.9315 14.1501 14.1424C15.4114 13.3478 16.5315 12.2924 17.3838 11.253L17.3859 11.2505L17.4054 11.2266L17.4054 11.2266C17.4846 11.1294 17.6104 10.9753 17.7138 10.8047C17.8251 10.6212 17.9609 10.3403 17.9609 9.99883C17.9609 9.65733 17.8251 9.37643 17.7138 9.19291C17.6104 9.02235 17.4847 8.86827 17.4054 8.77111L17.4054 8.77109L17.3859 8.74716L17.3859 8.74716L17.3836 8.7444C16.5118 7.68231 15.38 6.62739 14.1176 5.83896ZM3.57017 9.91616C3.60219 9.85187 3.65278 9.77714 3.71983 9.69453C4.50341 8.73912 5.51496 7.80031 6.61815 7.11118C7.72696 6.41853 8.87788 6.00888 9.9564 6.02904C9.96574 6.02921 9.97509 6.02921 9.98443 6.02904C11.0629 6.00888 12.2139 6.41853 13.323 7.11121C14.4264 7.80037 15.4385 8.73925 16.2231 9.69481L16.2231 9.69483C16.3193 9.81314 16.3838 9.89243 16.4313 9.97076C16.4378 9.9815 16.4431 9.99084 16.4474 9.99883C16.4431 10.0068 16.4378 10.0162 16.4313 10.0269C16.3838 10.1052 16.3193 10.1845 16.2231 10.3028L16.2231 10.3029L16.223 10.303C15.4555 11.2387 14.4534 12.1785 13.3505 12.8733C12.2423 13.5716 11.0831 13.9912 9.9844 13.9707C9.97508 13.9705 9.96575 13.9705 9.95643 13.9707C8.85777 13.9912 7.69873 13.5716 6.59085 12.8734C5.4883 12.1785 4.48674 11.2388 3.71991 10.3032C3.65281 10.2206 3.6022 10.1458 3.57017 10.0815C3.54522 10.0314 3.54023 10.005 3.53927 9.99883C3.54023 9.99266 3.54522 9.96626 3.57017 9.91616ZM10.8071 9.99989C10.8071 10.4421 10.4476 10.8039 9.99998 10.8039C9.55237 10.8039 9.1929 10.4421 9.1929 9.99989C9.1929 9.55771 9.55237 9.19586 9.99998 9.19586C10.4476 9.19586 10.8071 9.55771 10.8071 9.99989ZM12.3071 9.99989C12.3071 11.2724 11.2741 12.3039 9.99998 12.3039C8.72582 12.3039 7.6929 11.2724 7.6929 9.99989C7.6929 8.72741 8.72582 7.69586 9.99998 7.69586C11.2741 7.69586 12.3071 8.72741 12.3071 9.99989Z" fill="#101010"/>
</svg>
