<svg width="48" height="63" viewBox="0 0 48 63" fill="none" xmlns="http://www.w3.org/2000/svg">
<path d="M15.9896 16.3911C15.9896 15.0601 17.0575 14.7669 17.6509 14.7273C18.1651 14.7273 19.3122 15.0838 19.3122 16.3911C19.3122 17.6984 18.2442 18.0549 17.6509 18.0549C17.0575 18.0549 15.9896 17.7221 15.9896 16.3911Z" fill="black"/>
<path fill-rule="evenodd" clip-rule="evenodd" d="M48 26.3738C48 14.4434 43.8762 7.68223 38.6652 3.99674C33.5485 0.377869 27.6628 -0.0726951 24.4474 0.00834048C21.3404 0.0866417 15.2206 0.408871 9.86565 3.90727C4.38878 7.48535 0 14.1833 0 26.3738C0 34.696 3.86235 42.5673 8.60793 48.8877C13.359 55.2154 19.1248 60.1627 23.225 62.65C24.0139 63.1285 24.9974 63.117 25.7757 62.6116C29.7729 60.0155 35.2904 54.7897 39.813 48.3679C44.3274 41.9578 48 34.1448 48 26.3738ZM24.5229 3.00739C27.4583 2.93341 32.58 3.36741 36.933 6.44606C41.1917 9.45809 45 15.2074 45 26.3738C45 33.2593 41.7117 40.4618 37.3603 46.6405C33.1422 52.6298 28.0656 57.458 24.4584 59.8861C20.7207 57.5439 15.4163 52.959 11.007 47.0864C6.46376 41.0355 3 33.7911 3 26.3738C3 15.0018 7.02843 9.34432 11.5064 6.4188C16.1064 3.4136 21.4791 3.0841 24.5229 3.00739Z" fill="black"/>
<path fill-rule="evenodd" clip-rule="evenodd" d="M10.0564 33.6234H36.993L31.1161 25.0857L31.1303 23.3617H32.8733L31.1303 22.4169H32.2395L31.1303 21.6295H31.7641L30.9719 20.3698L30.0212 21.6295H30.655L29.5458 22.4169H30.655L29.6297 22.9264L26.1946 17.9361L20.9734 24.1159L24.8893 29.2262L23.7027 30.4146L18.4815 23.6406L14.4834 28.3779L13.3634 27.7708H14.4726L13.3634 26.9834H13.9972L13.205 25.7237L12.2543 26.9834H12.8881L11.7789 27.7708H12.8881L10.9867 28.7156H12.8881V30.2682L10.0564 33.6234ZM14.1984 28.7156H13.3634L13.3551 29.7147L14.1984 28.7156ZM30.655 24.4158L29.9294 23.3617H30.655V24.4158Z" fill="black"/>
<path fill-rule="evenodd" clip-rule="evenodd" d="M36.933 6.44606C32.58 3.36741 27.4583 2.93341 24.5229 3.00739C21.4791 3.0841 16.1064 3.4136 11.5064 6.4188C7.02843 9.34432 3 15.0018 3 26.3738C3 33.7911 6.46376 41.0355 11.007 47.0864C15.4163 52.959 20.7207 57.5439 24.4584 59.8861C28.0656 57.458 33.1422 52.6298 37.3603 46.6405C41.7117 40.4618 45 33.2593 45 26.3738C45 15.2074 41.1917 9.45809 36.933 6.44606ZM15.9896 16.3911C15.9896 15.0601 17.0575 14.7669 17.6509 14.7273C18.1651 14.7273 19.3122 15.0838 19.3122 16.3911C19.3122 17.6984 18.2442 18.0549 17.6509 18.0549C17.0575 18.0549 15.9896 17.7221 15.9896 16.3911ZM36.993 33.6234H10.0564L12.8881 30.2682V28.7156H10.9867L12.8881 27.7708H11.7789L12.8881 26.9834H12.2543L13.205 25.7237L13.9972 26.9834H13.3634L14.4726 27.7708H13.3634L14.4834 28.3779L18.4815 23.6406L23.7027 30.4146L24.8893 29.2262L20.9734 24.1159L26.1946 17.9361L29.6297 22.9264L30.655 22.4169H29.5458L30.655 21.6295H30.0212L30.9719 20.3698L31.7641 21.6295H31.1303L32.2395 22.4169H31.1303L32.8733 23.3617H31.1303L31.1161 25.0857L36.993 33.6234Z" fill="#F5F5F5" fill-opacity="0.9"/>
</svg>
