<svg width="49" height="63" viewBox="0 0 49 63" fill="none" xmlns="http://www.w3.org/2000/svg">
<path fill-rule="evenodd" clip-rule="evenodd" d="M48.3867 26.3738C48.3867 14.4434 44.2629 7.68223 39.052 3.99674C33.9352 0.377869 28.0495 -0.0726951 24.8341 0.00834048C21.7272 0.0866417 15.6073 0.408871 10.2524 3.90727C4.7755 7.48535 0.386719 14.1833 0.386719 26.3738C0.386719 34.696 4.24907 42.5673 8.99465 48.8877C13.7457 55.2154 19.5115 60.1627 23.6118 62.65C24.4006 63.1285 25.3841 63.117 26.1624 62.6116C30.1596 60.0155 35.6771 54.7897 40.1998 48.3679C44.7141 41.9578 48.3867 34.1448 48.3867 26.3738ZM24.9097 3.00739C27.845 2.93341 32.9667 3.36741 37.3197 6.44606C41.5784 9.45809 45.3867 15.2074 45.3867 26.3738C45.3867 33.2593 42.0984 40.4618 37.747 46.6405C33.5289 52.6298 28.4523 57.458 24.8452 59.8861C21.1074 57.5439 15.803 52.959 11.3937 47.0864C6.85048 41.0355 3.38672 33.7911 3.38672 26.3738C3.38672 15.0018 7.41515 9.34432 11.8932 6.4188C16.4931 3.4136 21.8658 3.0841 24.9097 3.00739Z" fill="black"/>
<path d="M14.9434 22.5H15.4434H16.9434H18.9434H20.9434H22.9434H24.9434H26.9434H28.9434H30.9434H32.9434H34.4434H34.9434L33.9434 18.5H15.9434L14.9434 22.5Z" fill="black"/>
<path d="M14.9434 22.5C15.0399 22.6932 15.2261 22.9983 15.4434 23.2207C15.601 23.3821 15.7752 23.5 15.9434 23.5C16.3434 23.5 16.7767 22.8333 16.9434 22.5H15.4434H14.9434Z" fill="black"/>
<path d="M16.9434 22.5C17.11 22.8333 17.5434 23.5 17.9434 23.5C18.3434 23.5 18.7767 22.8333 18.9434 22.5H16.9434Z" fill="black"/>
<path d="M18.9434 22.5C19.11 22.8333 19.5434 23.5 19.9434 23.5C20.3434 23.5 20.7767 22.8333 20.9434 22.5H18.9434Z" fill="black"/>
<path d="M20.9434 22.5C21.11 22.8333 21.5434 23.5 21.9434 23.5C22.3434 23.5 22.7767 22.8333 22.9434 22.5H20.9434Z" fill="black"/>
<path d="M22.9434 22.5C23.11 22.8333 23.5434 23.5 23.9434 23.5C24.3434 23.5 24.7767 22.8333 24.9434 22.5H22.9434Z" fill="black"/>
<path d="M24.9434 22.5C25.11 22.8333 25.5434 23.5 25.9434 23.5C26.3434 23.5 26.7767 22.8333 26.9434 22.5H24.9434Z" fill="black"/>
<path d="M26.9434 22.5C27.11 22.8333 27.5434 23.5 27.9434 23.5C28.3434 23.5 28.7767 22.8333 28.9434 22.5H26.9434Z" fill="black"/>
<path d="M28.9434 22.5C29.11 22.8333 29.5434 23.5 29.9434 23.5C30.3434 23.5 30.7767 22.8333 30.9434 22.5H28.9434Z" fill="black"/>
<path d="M30.9434 22.5C31.11 22.8333 31.5434 23.5 31.9434 23.5C32.3434 23.5 32.7767 22.8333 32.9434 22.5H30.9434Z" fill="black"/>
<path d="M32.9434 22.5C33.11 22.8333 33.5434 23.5 33.9434 23.5C34.1031 23.5 34.2814 23.3937 34.4434 23.2447C34.6869 23.0207 34.8933 22.7002 34.9434 22.5H34.4434H32.9434Z" fill="black"/>
<path d="M14.9434 34H34.9434V30H34.4434H15.4434H14.9434V34Z" fill="black"/>
<path d="M15.4434 29H34.4434V28.5H19.4434H18.3636H17.4434H16.4434H15.4434V29Z" fill="black"/>
<path d="M14.9434 22.5V29.5V30H15.4434V29V28.5V23.2207C15.2261 22.9983 15.0399 22.6932 14.9434 22.5Z" fill="black"/>
<path d="M34.9434 30V29.5V29V28.5V22.5C34.8933 22.7002 34.6869 23.0207 34.4434 23.2447V28.5V29V30H34.9434Z" fill="black"/>
<path d="M16.4434 27V28.5H17.4434V27.75C17.4434 27.3358 17.1076 27 16.6934 27H16.4434Z" fill="black"/>
<path d="M17.4434 27.75V28.5H18.3636V27.75H17.4434Z" fill="black"/>
<path d="M19.9434 28C19.9434 27.6 19.61 27.5 19.4434 27.5C19.2767 27.5 18.9434 27.6 18.9434 28C18.9434 28.4 19.2767 28.5 19.4434 28.5C19.61 28.5 19.9434 28.4 19.9434 28Z" fill="black"/>
<path fill-rule="evenodd" clip-rule="evenodd" d="M37.3197 6.44606C32.9667 3.36741 27.845 2.93341 24.9097 3.00739C21.8658 3.0841 16.4931 3.4136 11.8932 6.4188C7.41515 9.34432 3.38672 15.0018 3.38672 26.3738C3.38672 33.7911 6.85048 41.0355 11.3937 47.0864C15.803 52.959 21.1074 57.5439 24.8452 59.8861C28.4523 57.458 33.5289 52.6298 37.747 46.6405C42.0984 40.4618 45.3867 33.2593 45.3867 26.3738C45.3867 15.2074 41.5784 9.45809 37.3197 6.44606ZM34.9434 34H14.9434V30V29.5V22.5L15.9434 18.5H33.9434L34.9434 22.5V28.5V29V29.5V30V34Z" fill="#F5F5F5" fill-opacity="0.9"/>
</svg>
