<svg width="17" height="19" viewBox="0 0 17 19" fill="none" xmlns="http://www.w3.org/2000/svg">
<path d="M2.75902 18.7108H13.956L9.04178 16.8206V7.04356L16.382 1.82302C9.04178 2.94902 7.67326 2.99314 0.395202 1.643L7.67326 7.04356V16.8206L2.75902 18.7108Z" fill="#100E0E"/>
<path fill-rule="evenodd" clip-rule="evenodd" d="M8.36604 0.983139C10.5405 1.00569 12.7219 1.25384 16.3918 1.74887L16.5793 1.77417L9.11578 7.0824V16.769L13.9823 18.6409L13.956 18.7856H2.759L2.73268 18.6409L7.59923 16.769V7.08145L0.198242 1.58966L0.387088 1.56865C4.0258 1.16364 6.19159 0.960585 8.36604 0.983139ZM0.698252 1.77508L7.74726 7.00568V16.8721L3.16159 18.636H13.5534L8.96775 16.8721V7.00473L16.0826 1.94451C12.5992 2.47637 10.4788 2.75292 8.36471 2.73637C6.25201 2.71983 4.14799 2.4106 0.698252 1.77508ZM15.8555 1.82781C12.4928 2.33929 10.4253 2.60289 8.36586 2.58676C6.30429 2.57062 4.24848 2.27414 0.907631 1.6615C4.24581 1.29376 6.30204 1.11135 8.36452 1.13275C10.4253 1.15412 12.494 1.37898 15.8555 1.82781Z" fill="black"/>
<path fill-rule="evenodd" clip-rule="evenodd" d="M16.382 1.82302C9.04178 0.832918 7.67326 0.832921 0.395202 1.643C7.67326 2.99314 9.04178 2.94902 16.382 1.82302ZM8.36586 2.58676C10.4253 2.60289 12.4928 2.33929 15.8555 1.82781C12.494 1.37898 10.4253 1.15412 8.36452 1.13275C6.30204 1.11135 4.24581 1.29376 0.907631 1.6615C4.24848 2.27414 6.30429 2.57062 8.36586 2.58676Z" fill="#969393"/>
<path d="M15.8555 1.82781C12.4928 2.33929 10.4253 2.60289 8.36586 2.58676C6.30429 2.57062 4.24848 2.27414 0.907631 1.6615C4.24581 1.29376 6.30204 1.11135 8.36452 1.13275C10.4253 1.15412 12.494 1.37898 15.8555 1.82781Z" fill="black"/>
</svg>
