<svg width="17" height="24" viewBox="0 0 17 24" fill="none" xmlns="http://www.w3.org/2000/svg">
<path fill-rule="evenodd" clip-rule="evenodd" d="M8.05882 12.4583C4.17647 12.4583 1.73529 11.2361 1 10.625L3.64706 23H13.7941L16 10.625C14.9706 11.2361 11.9412 12.4583 8.05882 12.4583ZM8.5 17.0417C7.44118 17.0417 6.88235 17.5 6.73529 17.9583C7.02941 18.2639 7.61765 18.875 8.5 18.875C9.38235 18.875 9.97059 18.2639 10.2647 17.9583C10.1176 17.5 9.55882 17.0417 8.5 17.0417Z" fill="black"/>
<path d="M1 10.625C1.73529 11.2361 4.17647 12.4583 8.05882 12.4583C11.9412 12.4583 14.9706 11.2361 16 10.625M1 10.625L3.64706 23H13.7941L16 10.625M1 10.625H2.32353L1 4.66667H2.76471L4.08824 10.625L3.20588 3.29167H4.97059L5.85294 10.625V1H7.61765V10.625L8.05882 2.375H9.38235L8.94118 10.625L9.82353 4.66667H11.1471L10.2647 10.625L12.0294 3.29167H13.3529L11.5882 10.625L14.2353 1.91667H15.5588L12.9118 10.625L14.6765 6.04167H16L14.2353 10.625H16M6.73529 17.9583C6.88235 17.5 7.44118 17.0417 8.5 17.0417C9.55882 17.0417 10.1176 17.5 10.2647 17.9583C9.97059 18.2639 9.38235 18.875 8.5 18.875C7.61765 18.875 7.02941 18.2639 6.73529 17.9583Z" stroke="black" stroke-width="0.5"/>
</svg>
