<svg width="47" height="62" viewBox="0 0 47 62" fill="none" xmlns="http://www.w3.org/2000/svg">
<path fill-rule="evenodd" clip-rule="evenodd" d="M37.2496 4.81298C42.1419 8.33211 46 14.7797 46 26.1295C46 33.5311 42.5612 40.9677 38.3397 47.0639C34.1105 53.1714 28.9496 58.1441 25.2054 60.6172C24.4512 61.1153 23.4962 61.1267 22.7316 60.655C18.8917 58.2859 13.4983 53.5785 9.05479 47.5596C4.61636 41.5475 1 34.0552 1 26.1295C1 14.5315 5.10646 8.1431 10.2488 4.7263C15.2723 1.38853 21.0109 1.08241 23.9157 1.00795C26.9283 0.930734 32.4486 1.35961 37.2496 4.81298ZM35.533 7.25092C31.4872 4.34079 26.7242 3.92922 23.9908 3.99928C21.1495 4.07211 16.1516 4.38521 11.8751 7.2267C7.71751 9.98917 3.96053 15.34 3.96053 26.1295C3.96053 33.1583 7.18829 40.0278 11.4276 45.7701C15.5235 51.3183 20.4464 55.6537 23.9266 57.8824C27.2842 55.5717 31.9955 51.0073 35.9143 45.3481C39.9753 39.4835 43.0395 32.6533 43.0395 26.1295C43.0395 15.5343 39.4873 10.0953 35.533 7.25092Z" fill="black"/>
<path fill-rule="evenodd" clip-rule="evenodd" d="M23.0588 27.4583C19.1765 27.4583 16.7353 26.2361 16 25.625L18.6471 38H28.7941L31 25.625C29.9706 26.2361 26.9412 27.4583 23.0588 27.4583ZM23.5 32.0417C22.4412 32.0417 21.8824 32.5 21.7353 32.9583C22.0294 33.2639 22.6176 33.875 23.5 33.875C24.3824 33.875 24.9706 33.2639 25.2647 32.9583C25.1176 32.5 24.5588 32.0417 23.5 32.0417Z" fill="black"/>
<path fill-rule="evenodd" clip-rule="evenodd" d="M23.9908 3.99928C26.7242 3.92922 31.4872 4.34079 35.533 7.25092C39.4873 10.0953 43.0395 15.5343 43.0395 26.1295C43.0395 32.6533 39.9753 39.4835 35.9143 45.3481C31.9955 51.0073 27.2842 55.5717 23.9266 57.8824C20.4464 55.6537 15.5235 51.3183 11.4276 45.7701C7.18829 40.0278 3.96053 33.1583 3.96053 26.1295C3.96053 15.34 7.71751 9.98917 11.8751 7.2267C16.1516 4.38521 21.1495 4.07211 23.9908 3.99928ZM31 25.625L28.7941 38H18.6471L16 25.625H17.3235L16 19.6667H17.7647L19.0882 25.625L18.2059 18.2917H19.9706L20.8529 25.625V16H22.6176V25.625L23.0588 17.375H24.3824L23.9412 25.625L24.8235 19.6667H26.1471L25.2647 25.625L27.0294 18.2917H28.3529L26.5882 25.625L29.2353 16.9167H30.5588L27.9118 25.625L29.6765 21.0417H31L29.2353 25.625H31Z" fill="#F5F5F5" fill-opacity="0.9"/>
<path d="M16 25.625C16.7353 26.2361 19.1765 27.4583 23.0588 27.4583C26.9412 27.4583 29.9706 26.2361 31 25.625M16 25.625L18.6471 38H28.7941L31 25.625M16 25.625H17.3235L16 19.6667H17.7647L19.0882 25.625L18.2059 18.2917H19.9706L20.8529 25.625V16H22.6176V25.625L23.0588 17.375H24.3824L23.9412 25.625L24.8235 19.6667H26.1471L25.2647 25.625L27.0294 18.2917H28.3529L26.5882 25.625L29.2353 16.9167H30.5588L27.9118 25.625L29.6765 21.0417H31L29.2353 25.625H31M46 26.1295C46 14.7797 42.1419 8.33211 37.2496 4.81298C32.4486 1.35961 26.9283 0.930734 23.9157 1.00795C21.0109 1.08241 15.2723 1.38853 10.2488 4.7263C5.10646 8.1431 1 14.5315 1 26.1295C1 34.0552 4.61636 41.5475 9.05479 47.5596C13.4983 53.5785 18.8917 58.2859 22.7316 60.655C23.4962 61.1267 24.4512 61.1153 25.2054 60.6172C28.9496 58.1441 34.1105 53.1714 38.3397 47.0639C42.5612 40.9677 46 33.5311 46 26.1295ZM23.9908 3.99928C26.7242 3.92922 31.4872 4.34079 35.533 7.25092C39.4873 10.0953 43.0395 15.5343 43.0395 26.1295C43.0395 32.6533 39.9753 39.4835 35.9143 45.3481C31.9955 51.0073 27.2842 55.5717 23.9266 57.8824C20.4464 55.6537 15.5235 51.3183 11.4276 45.7701C7.18829 40.0278 3.96053 33.1583 3.96053 26.1295C3.96053 15.34 7.71751 9.98917 11.8751 7.2267C16.1516 4.38521 21.1495 4.07211 23.9908 3.99928ZM21.7353 32.9583C21.8824 32.5 22.4412 32.0417 23.5 32.0417C24.5588 32.0417 25.1176 32.5 25.2647 32.9583C24.9706 33.2639 24.3824 33.875 23.5 33.875C22.6176 33.875 22.0294 33.2639 21.7353 32.9583Z" stroke="black" stroke-width="0.5"/>
</svg>
