<svg width="20" height="20" viewBox="0 0 20 20" fill="none" xmlns="http://www.w3.org/2000/svg">
<path fill-rule="evenodd" clip-rule="evenodd" d="M7.33194 3.75H6.48306C6.06885 3.75 5.73306 3.41421 5.73306 3C5.73306 2.58579 6.06885 2.25 6.48306 2.25H8.08194H12.3457H13.9446C14.3588 2.25 14.6946 2.58579 14.6946 3C14.6946 3.41421 14.3588 3.75 13.9446 3.75H13.0957V9.13621L16.7652 13.8066C17.0376 14.1531 17.207 14.5692 17.254 15.0074C17.3011 15.4456 17.2239 15.8882 17.0314 16.2846C16.8388 16.681 16.5386 17.0153 16.165 17.2491C15.7915 17.483 15.3597 17.6071 14.919 17.6071H14.9188H5.50877H5.50864C5.06793 17.6071 4.63613 17.483 4.26259 17.2491C3.88904 17.0153 3.58883 16.681 3.39626 16.2846C3.20369 15.8882 3.12653 15.4456 3.17359 15.0074C3.22065 14.5692 3.39004 14.1531 3.6624 13.8066L7.33194 9.13621V3.75ZM8.83194 3.75L6.41753 12.7279L4.84178 14.7335L4.84167 14.7336C4.74324 14.8588 4.68202 15.0092 4.66501 15.1676C4.648 15.326 4.67589 15.4859 4.74549 15.6292C4.81508 15.7724 4.92358 15.8932 5.05858 15.9778C5.19354 16.0623 5.34955 16.1071 5.50877 16.1071L6.41753 12.7279L6.41768 12.7278L5.50891 16.1071H14.9187H14.9188C15.0781 16.1071 15.2341 16.0623 15.369 15.9778C15.504 15.8932 15.6125 15.7724 15.6821 15.6292C15.7517 15.4859 15.7796 15.326 15.7626 15.1676C15.7456 15.0092 15.6844 14.8588 15.5859 14.7336L15.5858 14.7335L11.7559 9.85896C11.6521 9.72683 11.5957 9.56365 11.5957 9.3956V3.75H8.83194ZM6.41768 12.7278L8.83194 3.75V9.3956C8.83194 9.56365 8.7755 9.72683 8.67168 9.85896L6.41768 12.7278Z" fill="#101010"/>
</svg>
