<svg width="14" height="16" viewBox="0 0 14 16" fill="none" xmlns="http://www.w3.org/2000/svg">
<path fill-rule="evenodd" clip-rule="evenodd" d="M2.24114 0.0748081C0.869624 0.0748081 0.472319 1.18926 0.445107 1.74648V11.7765C0.445107 12.7615 1.03667 13.2048 1.61934 13.3742C1.94647 13.4694 2.2708 13.4782 2.48606 13.4482C4.98209 13.4743 9.55749 13.4985 11.3846 13.4482C11.5097 13.4447 11.9457 13.4525 12.0377 13.4482C12.1554 13.4427 12.2641 13.4305 12.3643 13.4123C13.4873 13.2088 13.5505 12.2625 13.4256 11.7765V1.74648C13.4256 0.609742 12.2826 0.158392 11.7112 0.0748081H2.24114ZM2.24114 5.08982V3.58532H11.7112V5.08982H2.24114ZM2.89425 9.269C2.89425 8.6672 3.4385 8.46103 3.71063 8.43317C3.98276 8.43317 4.52701 8.60033 4.52701 9.269C4.52701 9.93767 3.98276 10.1048 3.71063 10.1048C3.4385 10.077 2.89425 9.8708 2.89425 9.269ZM9.4253 9.269C9.4253 8.6672 9.96955 8.46103 10.2417 8.43317C10.5138 8.43317 11.0581 8.60033 11.0581 9.269C11.0581 9.93767 10.5138 10.1048 10.2417 10.1048C9.96955 10.077 9.4253 9.8708 9.4253 9.269Z" fill="black"/>
<path d="M12.3643 13.4123C12.2641 13.4305 12.1554 13.4427 12.0377 13.4482C11.9457 13.4525 11.5097 13.4447 11.3846 13.4482V15.0247L12.3643 15.0363V13.4123Z" fill="black"/>
<path d="M2.48606 13.4482C2.2708 13.4782 1.94647 13.4694 1.61934 13.3742L1.5064 13.3646V15.0363H2.48606V13.4482Z" fill="black"/>
<path fill-rule="evenodd" clip-rule="evenodd" d="M0.896925 0.748262C0.63473 1.08132 0.532487 1.48231 0.519119 1.74835V11.7765C0.519119 12.2526 0.661611 12.5917 0.869438 12.8319C1.07661 13.0714 1.3534 13.218 1.63289 13.3003L2.48956 13.3734C4.98655 13.3995 9.5578 13.4237 11.3826 13.3734C11.4444 13.3717 11.5784 13.3727 11.7089 13.3736L11.7241 13.3737C11.8617 13.3747 11.9909 13.3755 12.0343 13.3735C12.1491 13.3681 12.2545 13.3562 12.3512 13.3387C12.8901 13.241 13.1652 12.9687 13.2952 12.6702C13.4273 12.3667 13.4134 12.0267 13.3539 11.7953L13.3516 11.7861V1.74648C13.3516 1.20768 13.0822 0.831075 12.7388 0.575985C12.3957 0.321022 11.9823 0.190925 11.7058 0.149616H2.24114C1.57825 0.149616 1.15724 0.417588 0.896925 0.748262ZM2.24114 0H11.7165L11.7218 0.000770569C12.0167 0.0439103 12.4575 0.181254 12.8265 0.455439C13.1975 0.731104 13.4996 1.14854 13.4996 1.74648V11.7671C13.563 12.0215 13.5778 12.3926 13.4306 12.7305C13.2849 13.0653 12.9837 13.3586 12.4383 13.474V15.112L11.3106 15.0986V13.525C9.45274 13.5722 5.03693 13.5492 2.56007 13.5238V15.1111H1.43239V13.3902C1.18726 13.2962 0.947716 13.1497 0.758007 12.9304C0.524384 12.6604 0.371094 12.2853 0.371094 11.7765V1.74279C0.385314 1.4516 0.49555 1.01782 0.781094 0.655107C1.06911 0.289252 1.53252 0 2.24114 0ZM1.58041 13.446V14.9615H2.41204V13.5316C2.19366 13.5501 1.90106 13.5329 1.60593 13.4482L1.58041 13.446ZM11.4586 13.5221V14.9508L12.2903 14.9606V13.5C12.2117 13.5111 12.1287 13.5188 12.0411 13.5229C11.9926 13.5252 11.8576 13.5243 11.723 13.5233L11.7116 13.5232C11.6187 13.5226 11.5262 13.5219 11.4586 13.5221ZM2.16713 3.51051H11.7852V5.16463H2.16713V3.51051ZM2.31516 3.66013V5.01501H11.6372V3.66013H2.31516ZM3.70689 8.35836H3.71063C3.85873 8.35836 4.07908 8.40322 4.26448 8.53989C4.4536 8.6793 4.60102 8.91069 4.60102 9.269C4.60102 9.62731 4.4536 9.8587 4.26448 9.99811C4.07908 10.1348 3.85873 10.1796 3.71063 10.1796H3.70689L3.70317 10.1793C3.55653 10.1643 3.33875 10.102 3.15569 9.96177C2.96988 9.81948 2.82024 9.59658 2.82024 9.269C2.82024 8.94142 2.96988 8.71853 3.15569 8.57623C3.33875 8.43604 3.55653 8.37375 3.70317 8.35874L3.70689 8.35836ZM3.71435 8.50798C3.58884 8.52153 3.40065 8.57635 3.24509 8.69548C3.09074 8.81368 2.96826 8.99478 2.96826 9.269C2.96826 9.54322 3.09074 9.72432 3.24509 9.84252C3.40065 9.96165 3.58884 10.0165 3.71435 10.03C3.83839 10.0293 4.02404 9.99018 4.17726 9.87723C4.3283 9.76589 4.453 9.57936 4.453 9.269C4.453 8.95864 4.3283 8.77211 4.17726 8.66077C4.02404 8.54783 3.83839 8.50875 3.71435 8.50798ZM10.2379 8.35836H10.2417C10.3898 8.35836 10.6101 8.40322 10.7955 8.53989C10.9847 8.6793 11.1321 8.91069 11.1321 9.269C11.1321 9.62731 10.9847 9.8587 10.7955 9.99811C10.6101 10.1348 10.3898 10.1796 10.2417 10.1796H10.2379L10.2342 10.1793C10.0876 10.1643 9.8698 10.102 9.68674 9.96177C9.50093 9.81948 9.35129 9.59658 9.35129 9.269C9.35129 8.94142 9.50093 8.71853 9.68674 8.57623C9.8698 8.43604 10.0876 8.37375 10.2342 8.35874L10.2379 8.35836ZM10.2454 8.50798C10.1199 8.52153 9.93169 8.57635 9.77614 8.69548C9.62179 8.81368 9.49931 8.99478 9.49931 9.269C9.49931 9.54322 9.62179 9.72432 9.77614 9.84252C9.93169 9.96165 10.1199 10.0165 10.2454 10.03C10.3694 10.0293 10.5551 9.99018 10.7083 9.87723C10.8593 9.76589 10.984 9.57936 10.984 9.269C10.984 8.95864 10.8593 8.77211 10.7083 8.66077C10.5551 8.54783 10.3694 8.50875 10.2454 8.50798Z" fill="black"/>
</svg>
