<svg width="45" height="60" viewBox="0 0 45 60" fill="none" xmlns="http://www.w3.org/2000/svg">
<path fill-rule="evenodd" clip-rule="evenodd" d="M36.2496 3.81298C41.1419 7.33211 45 13.7797 45 25.1295C45 32.5311 41.5612 39.9677 37.3397 46.0639C33.1105 52.1714 27.9496 57.1441 24.2054 59.6172C23.4512 60.1153 22.4962 60.1267 21.7316 59.655C17.8917 57.2859 12.4983 52.5785 8.05479 46.5596C3.61636 40.5475 0 33.0552 0 25.1295C0 13.5315 4.10646 7.1431 9.24883 3.7263C14.2723 0.388532 20.0109 0.0824078 22.9157 0.00795195C25.9283 -0.0692664 31.4486 0.359607 36.2496 3.81298ZM34.533 6.25092C30.4872 3.34079 25.7242 2.92922 22.9908 2.99928C20.1495 3.07211 15.1516 3.38521 10.8751 6.2267C6.71751 8.98917 2.96053 14.34 2.96053 25.1295C2.96053 32.1583 6.18829 39.0278 10.4276 44.7701C14.5235 50.3183 19.4464 54.6537 22.9266 56.8824C26.2842 54.5717 30.9955 50.0073 34.9143 44.3481C38.9753 38.4835 42.0395 31.6533 42.0395 25.1295C42.0395 14.5343 38.4873 9.09531 34.533 6.25092Z" fill="black"/>
<path fill-rule="evenodd" clip-rule="evenodd" d="M18.2416 16.0748C16.87 16.0748 16.4727 17.1893 16.4455 17.7465V27.7765C16.4455 28.7615 17.0371 29.2048 17.6198 29.3742C17.9469 29.4694 18.2712 29.4782 18.4865 29.4482C20.9825 29.4743 25.5579 29.4985 27.385 29.4482C27.5101 29.4447 27.9461 29.4525 28.0381 29.4482C28.1558 29.4427 28.2645 29.4305 28.3647 29.4123C29.4877 29.2088 29.5509 28.2625 29.426 27.7765V17.7465C29.426 16.6097 28.2831 16.1584 27.7116 16.0748H18.2416ZM18.2416 21.0898V19.5853H27.7116V21.0898H18.2416ZM18.8947 25.269C18.8947 24.6672 19.4389 24.461 19.7111 24.4332C19.9832 24.4332 20.5274 24.6003 20.5274 25.269C20.5274 25.9377 19.9832 26.1048 19.7111 26.1048C19.4389 26.077 18.8947 25.8708 18.8947 25.269ZM25.4257 25.269C25.4257 24.6672 25.97 24.461 26.2421 24.4332C26.5142 24.4332 27.0585 24.6003 27.0585 25.269C27.0585 25.9377 26.5142 26.1048 26.2421 26.1048C25.97 26.077 25.4257 25.8708 25.4257 25.269Z" fill="black"/>
<path d="M28.3647 29.4123C28.2645 29.4305 28.1558 29.4427 28.0381 29.4482C27.9461 29.4525 27.5101 29.4447 27.385 29.4482V31.0247L28.3647 31.0363V29.4123Z" fill="black"/>
<path d="M18.4865 29.4482C18.2712 29.4782 17.9469 29.4694 17.6198 29.3742L17.5068 29.3646V31.0363H18.4865V29.4482Z" fill="black"/>
<path fill-rule="evenodd" clip-rule="evenodd" d="M16.8973 16.7483C16.6351 17.0813 16.5329 17.4823 16.5195 17.7484V27.7765C16.5195 28.2526 16.662 28.5917 16.8699 28.8319C17.077 29.0714 17.3538 29.218 17.6333 29.3003L18.49 29.3734C20.987 29.3995 25.5582 29.4237 27.383 29.3734C27.4448 29.3717 27.5788 29.3727 27.7094 29.3736L27.7245 29.3737C27.8622 29.3747 27.9913 29.3755 28.0347 29.3735C28.1495 29.3681 28.2549 29.3562 28.3516 29.3387C28.8905 29.241 29.1656 28.9687 29.2956 28.6702C29.4277 28.3667 29.4138 28.0267 29.3544 27.7953L29.352 27.7861V17.7465C29.352 17.2077 29.0826 16.8311 28.7393 16.576C28.3961 16.321 27.9827 16.1909 27.7062 16.1496H18.2416C17.5787 16.1496 17.1577 16.4176 16.8973 16.7483ZM18.2416 16H27.7169L27.7222 16.0008C28.0171 16.0439 28.4579 16.1813 28.8269 16.4554C29.1979 16.7311 29.5 17.1485 29.5 17.7465V27.7671C29.5635 28.0215 29.5782 28.3926 29.4311 28.7305C29.2853 29.0653 28.9842 29.3586 28.4387 29.474V31.112L27.311 31.0986V29.525C25.4532 29.5722 21.0373 29.5492 18.5605 29.5238V31.1111H17.4328V29.3902C17.1877 29.2962 16.9481 29.1497 16.7584 28.9304C16.5248 28.6604 16.3715 28.2853 16.3715 27.7765V17.7428C16.3857 17.4516 16.496 17.0178 16.7815 16.6551C17.0695 16.2893 17.5329 16 18.2416 16ZM17.5808 29.446V30.9615H18.4125V29.5316C18.1941 29.5501 17.9015 29.5329 17.6063 29.4482L17.5808 29.446ZM27.459 29.5221V30.9508L28.2907 30.9606V29.5C28.2121 29.5111 28.1291 29.5188 28.0415 29.5229C27.993 29.5252 27.8581 29.5243 27.7234 29.5233L27.712 29.5232C27.6191 29.5226 27.5266 29.5219 27.459 29.5221ZM18.1675 19.5105H27.7856V21.1646H18.1675V19.5105ZM18.3156 19.6601V21.015H27.6376V19.6601H18.3156ZM19.7073 24.3584H19.7111C19.8592 24.3584 20.0795 24.4032 20.2649 24.5399C20.454 24.6793 20.6014 24.9107 20.6014 25.269C20.6014 25.6273 20.454 25.8587 20.2649 25.9981C20.0795 26.1348 19.8592 26.1796 19.7111 26.1796H19.7073L19.7036 26.1793C19.557 26.1643 19.3392 26.102 19.1561 25.9618C18.9703 25.8195 18.8207 25.5966 18.8207 25.269C18.8207 24.9414 18.9703 24.7185 19.1561 24.5762C19.3392 24.436 19.557 24.3738 19.7036 24.3587L19.7073 24.3584ZM19.7148 24.508C19.5893 24.5215 19.4011 24.5764 19.2455 24.6955C19.0912 24.8137 18.9687 24.9948 18.9687 25.269C18.9687 25.5432 19.0912 25.7243 19.2455 25.8425C19.4011 25.9617 19.5893 26.0165 19.7148 26.03C19.8388 26.0293 20.0245 25.9902 20.1777 25.8772C20.3287 25.7659 20.4534 25.5794 20.4534 25.269C20.4534 24.9586 20.3287 24.7721 20.1777 24.6608C20.0245 24.5478 19.8388 24.5088 19.7148 24.508ZM26.2384 24.3584H26.2421C26.3902 24.3584 26.6106 24.4032 26.796 24.5399C26.9851 24.6793 27.1325 24.9107 27.1325 25.269C27.1325 25.6273 26.9851 25.8587 26.796 25.9981C26.6106 26.1348 26.3902 26.1796 26.2421 26.1796H26.2384L26.2346 26.1793C26.088 26.1643 25.8702 26.102 25.6872 25.9618C25.5014 25.8195 25.3517 25.5966 25.3517 25.269C25.3517 24.9414 25.5014 24.7185 25.6872 24.5762C25.8702 24.436 26.088 24.3738 26.2346 24.3587L26.2384 24.3584ZM26.2458 24.508C26.1203 24.5215 25.9321 24.5764 25.7766 24.6955C25.6222 24.8137 25.4997 24.9948 25.4997 25.269C25.4997 25.5432 25.6222 25.7243 25.7766 25.8425C25.9321 25.9617 26.1203 26.0165 26.2458 26.03C26.3699 26.0293 26.5555 25.9902 26.7087 25.8772C26.8598 25.7659 26.9845 25.5794 26.9845 25.269C26.9845 24.9586 26.8598 24.7721 26.7087 24.6608C26.5555 24.5478 26.3699 24.5088 26.2458 24.508Z" fill="black"/>
<path fill-rule="evenodd" clip-rule="evenodd" d="M22.9908 2.99928C25.7242 2.92922 30.4872 3.34079 34.533 6.25092C38.4873 9.09531 42.0395 14.5343 42.0395 25.1295C42.0395 31.6533 38.9753 38.4835 34.9143 44.3481C30.9955 50.0073 26.2842 54.5717 22.9266 56.8824C19.4464 54.6537 14.5235 50.3183 10.4276 44.7701C6.18829 39.0278 2.96053 32.1583 2.96053 25.1295C2.96053 14.34 6.71751 8.98917 10.8751 6.2267C15.1516 3.38521 20.1495 3.07211 22.9908 2.99928ZM27.7169 16L27.7222 16.0008C28.0171 16.0439 28.4579 16.1813 28.8269 16.4554C29.1979 16.7311 29.5 17.1485 29.5 17.7465V27.7671C29.5635 28.0215 29.5782 28.3926 29.4311 28.7305C29.2853 29.0653 28.9842 29.3586 28.4387 29.474V31.112L27.311 31.0986V29.525C25.4532 29.5722 21.0373 29.5492 18.5605 29.5238V31.1111H17.4328V29.3902C17.1877 29.2962 16.9481 29.1497 16.7584 28.9304C16.5248 28.6604 16.3715 28.2853 16.3715 27.7765V17.7428C16.3857 17.4516 16.496 17.0178 16.7815 16.6551C17.0695 16.2893 17.5329 16 18.2416 16H27.7169Z" fill="#F5F5F5" fill-opacity="0.9"/>
</svg>
