<svg width="49" height="63" viewBox="0 0 49 63" fill="none" xmlns="http://www.w3.org/2000/svg">
<path fill-rule="evenodd" clip-rule="evenodd" d="M48.9434 26.3738C48.9434 14.4434 44.8196 7.68223 39.6086 3.99674C34.4918 0.377869 28.6061 -0.0726951 25.3907 0.00834048C22.2838 0.0866417 16.1639 0.408871 10.809 3.90727C5.33214 7.48535 0.943359 14.1833 0.943359 26.3738C0.943359 34.696 4.80571 42.5673 9.55129 48.8877C14.3024 55.2154 20.0681 60.1627 24.1684 62.65C24.9572 63.1285 25.9407 63.117 26.719 62.6116C30.7163 60.0155 36.2337 54.7897 40.7564 48.3679C45.2708 41.9578 48.9434 34.1448 48.9434 26.3738ZM25.4663 3.00739C28.4016 2.93341 33.5234 3.36741 37.8763 6.44606C42.1351 9.45809 45.9434 15.2074 45.9434 26.3738C45.9434 33.2593 42.6551 40.4618 38.3036 46.6405C34.0855 52.6298 29.009 57.458 25.4018 59.8861C21.6641 57.5439 16.3596 52.959 11.9503 47.0864C7.40712 41.0355 3.94336 33.7911 3.94336 26.3738C3.94336 15.0018 7.97179 9.34432 12.4498 6.4188C17.0498 3.4136 22.4225 3.0841 25.4663 3.00739Z" fill="black"/>
<path d="M24.9434 24C18.9434 24 16.9434 22.5 16.9434 22.5C16.7767 23.5 16.9434 26 16.9434 27.5C16.9434 29.5616 18.9434 33.5 20.9434 34C22.1705 34.3068 24.2017 34.5 24.9434 34.5C25.8683 34.5 28.4374 34.253 28.9434 34C29.7341 33.6046 31.3375 31.7713 31.7647 29.5C31.824 29.1847 31.9128 28.3514 31.9434 28C31.9711 27.6815 31.9434 27.8482 31.9434 27.5V23.5V22.5C31.9434 22.5 30.9434 24 24.9434 24Z" fill="black"/>
<path d="M24.9434 20.5C21.9234 20.5 18.4267 21.1667 16.9434 22.5C16.9434 22.5 18.9434 24 24.9434 24C30.9434 24 31.9434 22.5 31.9434 22.5C30.9434 21.1667 27.9633 20.5 24.9434 20.5Z" fill="black"/>
<path d="M36.4434 24.5C36.4434 22.9 33.4434 22.5 31.9434 22.5V23.5C32.8561 23.5 35.4434 23.5 35.4434 24.5C35.4434 25.5 33.2909 27.1667 31.9434 28C31.9128 28.3514 31.824 29.1847 31.7647 29.5C33.3242 28.5 36.4434 26.1 36.4434 24.5Z" fill="black"/>
<path fill-rule="evenodd" clip-rule="evenodd" d="M37.8763 6.44606C33.5234 3.36741 28.4016 2.93341 25.4663 3.00739C22.4225 3.0841 17.0498 3.4136 12.4498 6.4188C7.97179 9.34432 3.94336 15.0018 3.94336 26.3738C3.94336 33.7911 7.40712 41.0355 11.9503 47.0864C16.3596 52.959 21.6641 57.5439 25.4018 59.8861C29.009 57.458 34.0855 52.6298 38.3036 46.6405C42.6551 40.4618 45.9434 33.2593 45.9434 26.3738C45.9434 15.2074 42.1351 9.45809 37.8763 6.44606ZM16.9434 22.5C18.4267 21.1667 21.9234 20.5 24.9434 20.5C27.9633 20.5 30.9434 21.1667 31.9434 22.5C33.4434 22.5 36.4434 22.9 36.4434 24.5C36.4434 26.1 33.3242 28.5 31.7647 29.5C31.3375 31.7713 29.7341 33.6046 28.9434 34C28.4374 34.253 25.8683 34.5 24.9434 34.5C24.2017 34.5 22.1705 34.3068 20.9434 34C18.9434 33.5 16.9434 29.5616 16.9434 27.5C16.9434 26 16.7767 23.5 16.9434 22.5Z" fill="#F5F5F5" fill-opacity="0.9"/>
</svg>
