<svg width="20" height="16" viewBox="0 0 20 16" fill="none" xmlns="http://www.w3.org/2000/svg">
<path d="M0 4.5H0.5H2H4H6H8H10H12H14H16H18H19.5H20L19 0.5H1L0 4.5Z" fill="black"/>
<path d="M0 4.5C0.0965798 4.69316 0.282705 4.99825 0.5 5.22069C0.657688 5.38211 0.831792 5.5 1 5.5C1.4 5.5 1.83333 4.83333 2 4.5H0.5H0Z" fill="black"/>
<path d="M2 4.5C2.16667 4.83333 2.6 5.5 3 5.5C3.4 5.5 3.83333 4.83333 4 4.5H2Z" fill="black"/>
<path d="M4 4.5C4.16667 4.83333 4.6 5.5 5 5.5C5.4 5.5 5.83333 4.83333 6 4.5H4Z" fill="black"/>
<path d="M6 4.5C6.16667 4.83333 6.6 5.5 7 5.5C7.4 5.5 7.83333 4.83333 8 4.5H6Z" fill="black"/>
<path d="M8 4.5C8.16667 4.83333 8.6 5.5 9 5.5C9.4 5.5 9.83333 4.83333 10 4.5H8Z" fill="black"/>
<path d="M10 4.5C10.1667 4.83333 10.6 5.5 11 5.5C11.4 5.5 11.8333 4.83333 12 4.5H10Z" fill="black"/>
<path d="M12 4.5C12.1667 4.83333 12.6 5.5 13 5.5C13.4 5.5 13.8333 4.83333 14 4.5H12Z" fill="black"/>
<path d="M14 4.5C14.1667 4.83333 14.6 5.5 15 5.5C15.4 5.5 15.8333 4.83333 16 4.5H14Z" fill="black"/>
<path d="M16 4.5C16.1667 4.83333 16.6 5.5 17 5.5C17.4 5.5 17.8333 4.83333 18 4.5H16Z" fill="black"/>
<path d="M18 4.5C18.1667 4.83333 18.6 5.5 19 5.5C19.1597 5.5 19.3381 5.39368 19.5 5.24474C19.7435 5.0207 19.9499 4.70022 20 4.5H19.5H18Z" fill="black"/>
<path d="M0 16H20V12H19.5H0.5H0V16Z" fill="black"/>
<path d="M0.5 11H19.5V10.5H4.5H3.42026H2.5H1.5H0.5V11Z" fill="black"/>
<path d="M0 4.5V11.5V12H0.5V11V10.5V5.22069C0.282705 4.99825 0.0965798 4.69316 0 4.5Z" fill="black"/>
<path d="M20 12V11.5V11V10.5V4.5C19.9499 4.70022 19.7435 5.0207 19.5 5.24474V10.5V11V12H20Z" fill="black"/>
<path d="M1.5 9V10.5H2.5V9.75C2.5 9.33579 2.16421 9 1.75 9H1.5Z" fill="black"/>
<path d="M2.5 9.75V10.5H3.42026V9.75H2.5Z" fill="black"/>
<path d="M5 10C5 9.6 4.66667 9.5 4.5 9.5C4.33333 9.5 4 9.6 4 10C4 10.4 4.33333 10.5 4.5 10.5C4.66667 10.5 5 10.4 5 10Z" fill="black"/>
</svg>
