<svg width="45" height="60" viewBox="0 0 45 60" fill="none" xmlns="http://www.w3.org/2000/svg">
<path fill-rule="evenodd" clip-rule="evenodd" d="M36.2496 3.81298C41.1419 7.33211 45 13.7797 45 25.1295C45 32.5311 41.5612 39.9677 37.3397 46.0639C33.1105 52.1714 27.9496 57.1441 24.2054 59.6172C23.4512 60.1153 22.4962 60.1267 21.7316 59.655C17.8917 57.2859 12.4983 52.5785 8.05479 46.5596C3.61636 40.5475 0 33.0552 0 25.1295C0 13.5315 4.10646 7.1431 9.24883 3.7263C14.2723 0.388532 20.0109 0.0824078 22.9157 0.00795195C25.9283 -0.0692664 31.4486 0.359607 36.2496 3.81298ZM34.533 6.25092C30.4872 3.34079 25.7242 2.92922 22.9908 2.99928C20.1495 3.07211 15.1516 3.38521 10.8751 6.2267C6.71751 8.98917 2.96053 14.34 2.96053 25.1295C2.96053 32.1583 6.18829 39.0278 10.4276 44.7701C14.5235 50.3183 19.4464 54.6537 22.9266 56.8824C26.2842 54.5717 30.9955 50.0073 34.9143 44.3481C38.9753 38.4835 42.0395 31.6533 42.0395 25.1295C42.0395 14.5343 38.4873 9.09531 34.533 6.25092Z" fill="black"/>
<path d="M22.6264 23.3527L24.476 21.1248C24.476 21.1248 24.2058 19.4666 24.7836 18.5689C25.5024 17.4521 28.5872 14.6978 29.7364 14.7884C30.9133 14.8812 31.6453 15.4782 31.9217 16.6418C32.1881 17.7633 29.991 21.2803 29.0422 22.1806C28.285 22.8991 26.6613 22.9781 26.6613 22.9781L24.4884 25.5955L31.6516 34.2239C31.9482 34.6169 32.3639 35.5535 31.654 36.1556C30.944 36.7577 29.9993 36.2698 29.6157 35.9506L22.7537 27.6851L16.0835 35.7196C15.7408 36.0941 14.8649 36.6813 14.1028 36.035C13.3408 35.3887 13.6488 34.3199 13.8981 33.8662L20.8917 25.4422L19.3642 23.6023C19.3642 23.6023 17.7088 23.6359 17.0424 22.8416C16.8795 22.6474 16.6565 22.3962 16.4 22.1073C15.2556 20.8182 13.4457 18.7794 13.3462 17.7184L13.4515 17.144L17.7324 22.2467L18.2753 21.7786L14.3246 17.0694L14.341 16.5716L14.8433 16.6694L18.771 21.3512L19.2788 20.9134L15.3511 16.2317L15.3041 15.7411L15.7929 15.8507L19.7206 20.5324L20.2622 20.0655L16.2168 15.2434L15.992 14.9535L16.5264 14.9291C17.6746 15.3902 20.144 18.5605 20.8158 19.5881C21.3704 20.4365 21.4002 21.8756 21.4002 21.8756L22.6264 23.3527Z" fill="black"/>
<path fill-rule="evenodd" clip-rule="evenodd" d="M29.1988 14.8084C29.3991 14.738 29.584 14.7014 29.7421 14.7138C30.3416 14.7611 30.8347 14.9374 31.214 15.256C31.5936 15.5748 31.8526 16.0305 31.9937 16.6243C32.0304 16.7788 32.0235 16.9681 31.9862 17.1781C31.9488 17.3891 31.8796 17.6264 31.787 17.8797C31.6018 18.3863 31.3204 18.963 31.002 19.531C30.3664 20.665 29.5755 21.7771 29.0929 22.2351C28.6988 22.609 28.0866 22.8118 27.5835 22.9219C27.3302 22.9774 27.101 23.0101 26.9351 23.0289C26.8521 23.0383 26.7849 23.0443 26.7382 23.0479C26.7222 23.0492 26.7085 23.0502 26.6975 23.0509L24.585 25.5955L31.7105 34.1785C31.8642 34.3822 32.0489 34.7262 32.1035 35.1004C32.1585 35.4781 32.0808 35.8913 31.7015 36.2129C31.3237 36.5334 30.8839 36.5616 30.4959 36.4715C30.1095 36.3818 29.7673 36.1737 29.5686 36.0084L29.5634 36.004L22.7537 27.8015L16.1379 35.7705C15.9602 35.9646 15.6449 36.2138 15.2725 36.3315C14.8965 36.4503 14.4594 36.4351 14.0553 36.0923C13.6523 35.7506 13.5338 35.2969 13.5472 34.876C13.5606 34.4571 13.7043 34.0649 13.8334 33.8299L13.8369 33.8236L20.795 25.4422L19.3299 23.6773C19.3191 23.6773 19.306 23.6772 19.2908 23.677C19.2433 23.6764 19.175 23.6745 19.091 23.6699C18.9233 23.6605 18.6924 23.6396 18.44 23.5934C17.9398 23.502 17.3368 23.3082 16.986 22.89C16.8239 22.6968 16.6017 22.4464 16.3449 22.1572L16.344 22.1562C15.7723 21.5122 15.0322 20.6785 14.4225 19.8727C14.1174 19.4696 13.8439 19.072 13.64 18.7073C13.437 18.3443 13.2989 18.0068 13.2725 17.7255L13.2716 17.7151L13.4071 16.9754L17.7408 22.1411L18.1712 21.7701L14.2497 17.0958L14.2699 16.4815L14.8829 16.601L18.7795 21.2456L19.1746 20.9049L15.2796 16.2622L15.2207 15.6458L15.8332 15.7831L19.729 20.4268L20.158 20.057L16.1585 15.2896L15.8451 14.8853L16.539 14.8536L16.5537 14.8596C16.8547 14.9804 17.2329 15.2737 17.6369 15.6522C18.043 16.0328 18.4822 16.5066 18.9055 16.997C19.752 17.9775 20.5394 19.0297 20.8776 19.5469C21.1636 19.9845 21.3117 20.569 21.389 21.0378C21.4278 21.2733 21.4491 21.4819 21.4606 21.6317C21.4664 21.7066 21.4698 21.7669 21.4717 21.8087C21.4724 21.8242 21.473 21.8372 21.4733 21.8474L22.6264 23.2363L24.3978 21.1026C24.3962 21.0915 24.3943 21.0778 24.3921 21.0617C24.3858 21.0138 24.3774 20.9446 24.3691 20.8589C24.3526 20.6875 24.3367 20.4494 24.3391 20.1828C24.3438 19.6532 24.4205 18.9958 24.7216 18.5281C25.0875 17.9595 26.0458 16.9858 27.0522 16.1676C27.5564 15.7577 28.0757 15.3843 28.5425 15.1187C28.7759 14.9858 28.9976 14.8791 29.1988 14.8084ZM21.3262 21.8772L21.3261 21.8735L21.3257 21.8618C21.3254 21.8513 21.3248 21.8358 21.3239 21.8156C21.322 21.7753 21.3187 21.7166 21.3131 21.6434C21.3017 21.4968 21.2809 21.2926 21.243 21.0623C21.1667 20.5995 21.0226 20.0402 20.7541 19.6294C20.4204 19.119 19.6373 18.0722 18.794 17.0953C18.3725 16.6071 17.9371 16.1376 17.5362 15.7619C17.1403 15.3909 16.785 15.1181 16.5136 15.0046L16.1389 15.0217L16.2741 15.1961L20.3664 20.074L19.7122 20.638L15.7525 15.9183L15.3876 15.8365L15.4225 16.2011L19.383 20.9219L18.7626 21.4568L14.8037 16.7379L14.4121 16.6616L14.3995 17.043L18.3795 21.7871L17.7239 22.3523L13.4959 17.3126L13.4209 17.7216C13.4467 17.9691 13.5714 18.2806 13.7688 18.6337C13.968 18.99 14.2371 19.3815 14.54 19.7818C15.1459 20.5826 15.8825 21.4123 16.4551 22.0573L16.4558 22.0581C16.7117 22.3464 16.9353 22.5982 17.0989 22.7932C17.4144 23.1693 17.9722 23.3559 18.4664 23.4462C18.7112 23.491 18.9358 23.5113 19.0992 23.5205C19.1809 23.525 19.2471 23.5268 19.2928 23.5274C19.3156 23.5277 19.3333 23.5278 19.3451 23.5277L19.3585 23.5276L19.3618 23.5276L19.3981 23.5268L20.9883 25.4422L13.9594 33.9087C13.8401 34.1281 13.7075 34.494 13.6952 34.8808C13.6828 35.2693 13.7913 35.6732 14.1504 35.9777C14.5083 36.2812 14.8902 36.2956 15.2283 36.1887C15.5692 36.081 15.8627 35.8502 16.0279 35.6701L22.7537 27.5687L29.6679 35.8972C29.8537 36.0504 30.173 36.243 30.529 36.3257C30.8867 36.4088 31.2743 36.3799 31.6064 36.0983C31.9372 35.8178 32.0065 35.4616 31.957 35.1222C31.9072 34.7803 31.7365 34.4602 31.5938 34.2707L24.3918 25.5955L26.6254 22.905L26.6577 22.9034L26.6619 22.9032L26.6752 22.9024C26.6869 22.9017 26.7043 22.9005 26.7269 22.8988C26.772 22.8953 26.8375 22.8894 26.9186 22.8802C27.0808 22.8618 27.3049 22.8298 27.5521 22.7757C28.0501 22.6667 28.6283 22.4707 28.9915 22.1261C29.4577 21.6837 30.2398 20.5873 30.8732 19.4573C31.1894 18.8933 31.4667 18.3242 31.6482 17.8278C31.7389 17.5796 31.8051 17.3512 31.8405 17.1517C31.8761 16.9511 31.8796 16.7852 31.8497 16.6593C31.7144 16.0895 31.4692 15.6649 31.1194 15.3711C30.7694 15.0771 30.308 14.9085 29.7306 14.863C29.6014 14.8528 29.4386 14.8825 29.2474 14.9497C29.0572 15.0166 28.8437 15.1189 28.6151 15.249C28.1578 15.5092 27.6455 15.8772 27.145 16.2842C26.142 17.0996 25.1985 18.0614 24.8456 18.6097C24.5689 19.0397 24.4918 19.6602 24.4871 20.1841C24.4848 20.4442 24.5003 20.6768 24.5165 20.8444C24.5245 20.9281 24.5327 20.9955 24.5389 21.0418C24.5419 21.0649 24.5445 21.0828 24.5463 21.0948L24.5483 21.1083L24.5489 21.1116L24.5545 21.1465L22.6264 23.4691L21.3267 21.9035L21.3262 21.8772Z" fill="black"/>
<path fill-rule="evenodd" clip-rule="evenodd" d="M22.9908 2.99928C25.7242 2.92922 30.4872 3.34079 34.533 6.25092C38.4873 9.09531 42.0395 14.5343 42.0395 25.1295C42.0395 31.6533 38.9753 38.4835 34.9143 44.3481C30.9955 50.0073 26.2842 54.5717 22.9266 56.8824C19.4464 54.6537 14.5235 50.3183 10.4276 44.7701C6.18829 39.0278 2.96053 32.1583 2.96053 25.1295C2.96053 14.34 6.71751 8.98917 10.8751 6.2267C15.1516 3.38521 20.1495 3.07211 22.9908 2.99928ZM29.1988 14.8084C29.3991 14.738 29.584 14.7014 29.7421 14.7138C30.3416 14.7611 30.8347 14.9374 31.214 15.256C31.5936 15.5748 31.8526 16.0305 31.9937 16.6243C32.0304 16.7788 32.0235 16.9681 31.9862 17.1781C31.9488 17.3891 31.8796 17.6264 31.787 17.8797C31.6018 18.3863 31.3204 18.963 31.002 19.531C30.3664 20.665 29.5755 21.7771 29.0929 22.2351C28.6988 22.609 28.0866 22.8118 27.5835 22.9219C27.3302 22.9774 27.101 23.0101 26.9351 23.0289C26.8521 23.0383 26.7849 23.0443 26.7382 23.0479L26.6975 23.0509L24.585 25.5955L31.7105 34.1785C31.8642 34.3822 32.0489 34.7262 32.1035 35.1004C32.1585 35.4781 32.0808 35.8913 31.7015 36.2129C31.3237 36.5334 30.8839 36.5616 30.4959 36.4715C30.1095 36.3818 29.7673 36.1737 29.5686 36.0084L29.5634 36.004L22.7537 27.8015L16.1379 35.7705C15.9602 35.9646 15.6449 36.2138 15.2725 36.3315C14.8965 36.4503 14.4594 36.4351 14.0553 36.0923C13.6523 35.7506 13.5338 35.2969 13.5472 34.876C13.5606 34.4571 13.7043 34.0649 13.8334 33.8299L13.8369 33.8236L20.795 25.4422L19.3299 23.6773L19.2908 23.677C19.2433 23.6764 19.175 23.6745 19.091 23.6699C18.9233 23.6605 18.6924 23.6396 18.44 23.5934C17.9398 23.502 17.3368 23.3082 16.986 22.89C16.8239 22.6968 16.6017 22.4464 16.3449 22.1572L16.344 22.1562C15.7723 21.5122 15.0322 20.6785 14.4225 19.8727C14.1174 19.4696 13.8439 19.072 13.64 18.7073C13.437 18.3443 13.2989 18.0068 13.2725 17.7255L13.2716 17.7151L13.4071 16.9754L17.7408 22.1411L18.1712 21.7701L14.2497 17.0958L14.2699 16.4815L14.8829 16.601L18.7795 21.2456L19.1746 20.9049L15.2796 16.2622L15.2207 15.6458L15.8332 15.7831L19.729 20.4268L20.158 20.057L16.1585 15.2896L15.8451 14.8853L16.539 14.8536L16.5537 14.8596C16.8547 14.9804 17.2329 15.2737 17.6369 15.6522C18.043 16.0328 18.4822 16.5066 18.9055 16.997C19.752 17.9775 20.5394 19.0297 20.8776 19.5469C21.1636 19.9845 21.3117 20.569 21.389 21.0378C21.4278 21.2733 21.4491 21.4819 21.4606 21.6317C21.4664 21.7066 21.4698 21.7669 21.4717 21.8087L21.4733 21.8474L22.6264 23.2363L24.3978 21.1026L24.3921 21.0617C24.3858 21.0138 24.3774 20.9446 24.3691 20.8589C24.3526 20.6875 24.3367 20.4494 24.3391 20.1828C24.3438 19.6532 24.4205 18.9958 24.7216 18.5281C25.0875 17.9595 26.0458 16.9858 27.0522 16.1676C27.5564 15.7577 28.0757 15.3843 28.5425 15.1187C28.7759 14.9858 28.9976 14.8791 29.1988 14.8084Z" fill="#F5F5F5" fill-opacity="0.9"/>
</svg>
