<svg width="20" height="23" viewBox="0 0 20 23" fill="none" xmlns="http://www.w3.org/2000/svg">
<path d="M9.6263 9.35219L11.4759 7.12427C11.4759 7.12427 11.2057 5.46612 11.7835 4.56837C12.5024 3.45159 15.5871 0.697315 16.7363 0.787925C17.9132 0.880726 18.6453 1.47771 18.9216 2.64131C19.188 3.76284 16.9909 7.27977 16.0421 8.18011C15.2849 8.89865 13.6612 8.97765 13.6612 8.97765L11.4883 11.595L18.6515 20.2235C18.9481 20.6165 19.3639 21.553 18.6539 22.1551C17.9439 22.7572 16.9992 22.2694 16.6156 21.9501L9.75359 13.6846L3.08338 21.7191C2.74069 22.0936 1.86481 22.6808 1.10275 22.0345C0.340684 21.3882 0.648751 20.3194 0.898046 19.8657L7.89159 11.4417L6.36413 9.60184C6.36413 9.60184 4.70867 9.63539 4.04233 8.84109C3.87946 8.64694 3.6564 8.39568 3.39991 8.10676C2.25552 6.81767 0.445601 4.77891 0.346142 3.71791L0.451391 3.1435L4.7323 8.2462L5.27525 7.77807L1.3245 3.0689L1.3409 2.57106L1.84324 2.66895L5.77096 7.35066L6.2787 6.91289L2.35097 2.23117L2.30406 1.74063L2.7928 1.85023L6.72053 6.53195L7.26213 6.06497L3.21669 1.24292L2.99188 0.953009L3.52633 0.928613C4.67457 1.38969 7.14394 4.55999 7.81573 5.58765C8.37035 6.43605 8.40007 7.87515 8.40007 7.87515L9.6263 9.35219Z" fill="black"/>
<path fill-rule="evenodd" clip-rule="evenodd" d="M16.1987 0.807892C16.399 0.737462 16.584 0.70088 16.742 0.713346C17.3416 0.760618 17.8346 0.936935 18.214 1.25554C18.5935 1.57433 18.8525 2.03003 18.9936 2.62385C19.0303 2.77835 19.0234 2.96759 18.9861 3.17759C18.9487 3.38858 18.8795 3.62592 18.7869 3.87921C18.6017 4.38583 18.3204 4.96256 18.002 5.53053C17.3663 6.66447 16.5754 7.77665 16.0928 8.23464C15.6987 8.60855 15.0866 8.81131 14.5834 8.92145C14.3301 8.97689 14.1009 9.00958 13.935 9.02842C13.8521 9.03784 13.7848 9.04382 13.7382 9.04744C13.7221 9.04869 13.7085 9.04966 13.6975 9.0504L11.5849 11.595L18.7104 20.178C18.8642 20.3817 19.0489 20.7257 19.1034 21.0999C19.1585 21.4776 19.0807 21.8908 18.7015 22.2124C18.3236 22.5329 17.8838 22.5612 17.4958 22.471C17.1094 22.3813 16.7672 22.1732 16.5686 22.0079L16.5633 22.0035L9.75359 13.801L3.13778 21.77C2.96007 21.9641 2.64484 22.2133 2.27242 22.331C1.89646 22.4498 1.45935 22.4346 1.05517 22.0918C0.652191 21.7501 0.533726 21.2964 0.547163 20.8755C0.560537 20.4566 0.70421 20.0644 0.833344 19.8294L0.836789 19.8231L7.79497 11.4417L6.32978 9.67684C6.31901 9.67682 6.30592 9.67673 6.2907 9.67653C6.24322 9.67588 6.17491 9.67406 6.09096 9.66936C5.92319 9.65998 5.69228 9.63908 5.43993 9.59294C4.93975 9.50149 4.33672 9.30768 3.98588 8.88947C3.82383 8.6963 3.60159 8.44595 3.34482 8.15672L3.34396 8.15575C2.77224 7.51174 2.03211 6.67802 1.42239 5.87224C1.11737 5.46914 0.843788 5.07149 0.639888 4.7068C0.43695 4.34384 0.29883 4.00627 0.27246 3.72496L0.271484 3.71456L0.407007 2.97492L4.74074 8.14059L5.17107 7.76956L1.24958 3.09526L1.26982 2.48102L1.88283 2.60048L5.7794 7.24506L6.17452 6.90438L2.27954 2.26169L2.22058 1.64528L2.83315 1.78265L6.72897 6.42634L7.15796 6.05646L3.15839 1.2891L2.84497 0.884832L3.53888 0.853157L3.55366 0.859091C3.85458 0.979927 4.23287 1.27317 4.63681 1.65173C5.04291 2.0323 5.48211 2.50607 5.90547 2.99648C6.75191 3.977 7.53935 5.02916 7.87749 5.54641C8.16352 5.98396 8.31164 6.56846 8.38889 7.03726C8.4277 7.27278 8.44897 7.48139 8.46055 7.6312C8.46634 7.70614 8.46972 7.76646 8.47165 7.80816C8.47237 7.82374 8.47289 7.83673 8.47325 7.84692L9.6263 9.23581L11.3977 7.10208C11.3961 7.09097 11.3942 7.07729 11.3921 7.06122C11.3857 7.01333 11.3773 6.94414 11.369 6.85839C11.3526 6.687 11.3366 6.44896 11.339 6.1823C11.3437 5.65274 11.4204 4.99531 11.7215 4.52758C12.0874 3.95906 13.0457 2.98532 14.0522 2.16709C14.5563 1.75718 15.0756 1.3838 15.5424 1.11816C15.7758 0.985348 15.9975 0.878638 16.1987 0.807892ZM8.32608 7.8767L8.32599 7.873L8.32563 7.86126C8.32529 7.85083 8.32471 7.8353 8.32378 7.81515C8.32192 7.77484 8.31864 7.71609 8.31298 7.64286C8.30165 7.49633 8.28083 7.29215 8.24288 7.06184C8.16661 6.59899 8.02256 6.03974 7.75398 5.62889C7.42032 5.11848 6.63717 4.07166 5.79393 3.09484C5.37244 2.60659 4.93702 2.1371 4.53617 1.76145C4.14027 1.39043 3.78492 1.11758 3.51351 1.00408L3.13878 1.02119L3.27407 1.19564L7.36631 6.07347L6.71208 6.63755L2.75246 1.9178L2.38754 1.83597L2.42241 2.20066L6.38287 6.9214L5.76252 7.45627L1.80364 2.73742L1.41199 2.6611L1.39942 3.04254L5.37943 7.78657L4.72386 8.3518L0.495775 3.31207L0.420836 3.72106C0.446613 3.96863 0.571326 4.28007 0.768759 4.63319C0.967954 4.98946 1.23703 5.381 1.53997 5.78135C2.14586 6.58207 2.88245 7.41185 3.455 8.0568L3.45574 8.05763C3.71164 8.34589 3.93524 8.59776 4.09878 8.79271C4.41429 9.1688 4.97215 9.35537 5.46628 9.44572C5.7111 9.49048 5.9357 9.51083 6.09914 9.51998C6.1808 9.52454 6.24704 9.5263 6.29269 9.52693C6.31552 9.52724 6.33319 9.52726 6.34507 9.52721L6.35845 9.52711L6.36173 9.52706L6.39806 9.52633L7.9882 11.4417L0.959357 19.9083C0.840062 20.1276 0.707463 20.4935 0.695113 20.8803C0.68271 21.2688 0.791243 21.6727 1.15032 21.9772C1.50821 22.2808 1.89008 22.2951 2.22825 22.1882C2.56913 22.0805 2.86264 21.8497 3.02784 21.6696L9.75359 13.5682L16.6679 21.8967C16.8536 22.05 17.1729 22.2425 17.5289 22.3252C17.8866 22.4083 18.2742 22.3794 18.6063 22.0978C18.9371 21.8173 19.0064 21.4611 18.957 21.1218C18.9071 20.7798 18.7364 20.4597 18.5937 20.2702L11.3917 11.595L13.6253 8.9045L13.6577 8.90293L13.6619 8.90271L13.6751 8.90192C13.6868 8.90119 13.7043 8.90002 13.7268 8.89827C13.7719 8.89476 13.8374 8.88895 13.9185 8.87974C14.0807 8.86131 14.3048 8.82934 14.5521 8.77522C15.05 8.66622 15.6283 8.47021 15.9915 8.12557C16.4576 7.68322 17.2397 6.58678 17.8732 5.45678C18.1893 4.89279 18.4666 4.32373 18.6481 3.82736C18.7388 3.57916 18.805 3.3507 18.8404 3.15117C18.876 2.95066 18.8795 2.78466 18.8496 2.65878C18.7143 2.08899 18.4691 1.6644 18.1194 1.3706C17.7693 1.07661 17.3079 0.908036 16.7305 0.862507C16.6013 0.85232 16.4385 0.881986 16.2473 0.9492C16.0571 1.0161 15.8437 1.11843 15.615 1.24853C15.1578 1.50874 14.6454 1.87673 14.1449 2.28367C13.142 3.09911 12.1985 4.06091 11.8456 4.60917C11.5688 5.03919 11.4917 5.65971 11.487 6.18365C11.4847 6.44375 11.5003 6.67635 11.5164 6.84391C11.5244 6.92765 11.5326 6.99501 11.5388 7.0413C11.5419 7.06444 11.5444 7.08231 11.5462 7.09431L11.5483 7.10783L11.5488 7.11115L11.5545 7.14602L9.6263 9.46857L8.32662 7.90305L8.32608 7.8767Z" fill="black"/>
</svg>
