<svg width="23" height="17" viewBox="0 0 23 17" fill="none" xmlns="http://www.w3.org/2000/svg">
<path fill-rule="evenodd" clip-rule="evenodd" d="M11.9507 0.989195C12.1952 0.767283 12.5122 0.644531 12.8408 0.644531H15.0748C15.4034 0.644531 15.7204 0.767283 15.9649 0.989195L17.3133 2.21301C17.3948 2.28698 17.5004 2.32789 17.61 2.32789H20.9741C21.7099 2.32789 22.3063 2.93076 22.3063 3.67443V15.0253C22.3063 15.769 21.7099 16.3718 20.9741 16.3718H1.73067C0.994901 16.3718 0.398438 15.769 0.398438 15.0253V3.67443C0.398438 2.93076 0.994901 2.32789 1.73067 2.32789H10.3056C10.4151 2.32789 10.5208 2.28698 10.6023 2.21301L11.9507 0.989195ZM12.8408 1.54222C12.7312 1.54222 12.6256 1.58314 12.5441 1.65711L11.1957 2.88092C10.9512 3.10283 10.6342 3.22558 10.3056 3.22558H1.73067C1.48542 3.22558 1.2866 3.42654 1.2866 3.67443V15.0253C1.2866 15.2732 1.48542 15.4742 1.73067 15.4742H20.9741C21.2194 15.4742 21.4182 15.2732 21.4182 15.0253V3.67443C21.4182 3.42654 21.2194 3.22558 20.9741 3.22558H17.61C17.2814 3.22558 16.9643 3.10283 16.7198 2.88092L15.3715 1.65711C15.29 1.58314 15.1843 1.54222 15.0748 1.54222H12.8408ZM14.898 7.45337C14.1071 6.64107 12.7995 6.67101 12.0431 7.51846C11.3393 8.30702 11.3743 9.5175 12.1229 10.2608C12.8613 10.994 14.0398 11.0188 14.8102 10.3176C15.6406 9.56181 15.6807 8.25724 14.898 7.45337ZM11.3836 6.91717C12.4814 5.68725 14.3804 5.64193 15.531 6.82372C16.6698 7.99323 16.6097 9.88778 15.4045 10.9847C14.2864 12.0024 12.5748 11.9679 11.5004 10.9011C10.4115 9.81984 10.3621 8.06176 11.3836 6.91717Z" fill="black"/>
<path d="M13.345 7.84383L13.1856 8.6196L12.3886 8.9299L13.1824 9.16267L13.5013 9.93844L13.6607 9.16267L14.4609 8.77475L13.6639 8.6196L13.345 7.84383Z" fill="black"/>
<path fill-rule="evenodd" clip-rule="evenodd" d="M0.842517 3.67443C0.842517 3.17865 1.24016 2.77674 1.73067 2.77674H10.3056C10.5247 2.77674 10.736 2.6949 10.899 2.54696L12.2474 1.32315C12.4104 1.17521 12.6217 1.09338 12.8408 1.09338H15.0748C15.2938 1.09338 15.5052 1.17521 15.6682 1.32315L17.0165 2.54696C17.1795 2.6949 17.3909 2.77674 17.61 2.77674H20.9741C21.4646 2.77674 21.8623 3.17865 21.8623 3.67443V15.0253C21.8623 15.5211 21.4646 15.923 20.9741 15.923H1.73067C1.24016 15.923 0.842517 15.5211 0.842517 15.0253V3.67443ZM11.7134 7.21781C10.8507 8.18439 10.8929 9.66867 11.8117 10.5809C12.7181 11.4809 14.1631 11.5106 15.1073 10.6512C16.1251 9.7248 16.1752 8.12524 15.2145 7.13855C14.2437 6.1415 12.6404 6.17912 11.7134 7.21781ZM12.8408 1.54222C12.7312 1.54222 12.6256 1.58314 12.5441 1.65711L11.1957 2.88092C10.9512 3.10283 10.6342 3.22558 10.3056 3.22558H1.73067C1.48542 3.22558 1.2866 3.42654 1.2866 3.67443V15.0253C1.2866 15.2732 1.48542 15.4742 1.73067 15.4742H20.9741C21.2194 15.4742 21.4182 15.2732 21.4182 15.0253V3.67443C21.4182 3.42654 21.2194 3.22558 20.9741 3.22558H17.61C17.2814 3.22558 16.9643 3.10283 16.7198 2.88092L15.3715 1.65711C15.29 1.58314 15.1843 1.54222 15.0748 1.54222H12.8408ZM15.531 6.82372C14.3804 5.64193 12.4814 5.68725 11.3836 6.91717C10.3621 8.06176 10.4115 9.81984 11.5004 10.9011C12.5748 11.9679 14.2864 12.0024 15.4045 10.9847C16.6097 9.88778 16.6698 7.99323 15.531 6.82372Z" fill="#DCD8D8"/>
<path fill-rule="evenodd" clip-rule="evenodd" d="M12.5441 1.65711C12.6256 1.58314 12.7312 1.54222 12.8408 1.54222H15.0748C15.1843 1.54222 15.29 1.58314 15.3715 1.65711L16.7198 2.88092C16.9643 3.10283 17.2814 3.22558 17.61 3.22558H20.9741C21.2194 3.22558 21.4182 3.42654 21.4182 3.67443V15.0253C21.4182 15.2732 21.2194 15.4742 20.9741 15.4742H1.73067C1.48542 15.4742 1.2866 15.2732 1.2866 15.0253V3.67443C1.2866 3.42654 1.48542 3.22558 1.73067 3.22558H10.3056C10.6342 3.22558 10.9512 3.10283 11.1957 2.88092L12.5441 1.65711ZM11.3836 6.91717C12.4814 5.68725 14.3804 5.64193 15.531 6.82372C16.6698 7.99323 16.6097 9.88778 15.4045 10.9847C14.2864 12.0024 12.5748 11.9679 11.5004 10.9011C10.4115 9.81984 10.3621 8.06176 11.3836 6.91717Z" fill="black"/>
</svg>
